<?xml version="1.0" standalone="no"?>
<!DOCTYPE svg PUBLIC "-//W3C//DTD SVG 20010904//EN"
 "http://www.w3.org/TR/2001/REC-SVG-20010904/DTD/svg10.dtd">
<svg version="1.0" xmlns="http://www.w3.org/2000/svg"
 width="654.000000pt" height="983.000000pt" viewBox="0 0 654.000000 983.000000"
 preserveAspectRatio="xMidYMid meet">

<g transform="translate(0.000000,983.000000) scale(0.100000,-0.100000)"
fill="#000000" stroke="none">
<path d="M0 9155 l0 -675 25 0 c14 0 25 -4 25 -10 0 -5 8 -10 19 -10 22 0 45
-25 36 -40 -3 -5 -13 -10 -20 -10 -24 0 -39 -39 -25 -65 11 -20 16 -22 43 -14
23 6 33 5 38 -4 18 -32 61 -68 88 -73 23 -5 32 -2 41 15 11 22 6 41 -11 41 -6
0 -7 -5 -4 -11 5 -7 1 -8 -11 -1 -11 5 -32 16 -47 23 -42 19 -33 51 18 61 39
9 41 8 87 -44 48 -52 59 -82 36 -91 -13 -4 28 -46 46 -47 6 0 19 -9 30 -19 12
-10 38 -28 59 -40 34 -19 37 -19 37 -3 -1 21 -38 67 -62 75 -17 6 -35 53 -25
63 3 4 16 -1 29 -10 28 -20 33 -20 52 0 19 18 74 10 83 -12 6 -15 71 -50 79
-42 3 3 -8 17 -24 30 -35 29 -65 89 -65 129 0 24 -3 27 -19 18 -22 -12 -23 -3
-2 18 13 14 17 14 25 2 5 -8 9 -18 9 -24 0 -5 5 -3 10 5 5 8 10 11 10 5 0 -5
5 -3 10 5 7 11 10 11 10 2 0 -7 4 -11 9 -8 5 3 12 -1 15 -10 3 -9 12 -14 19
-11 19 7 54 -34 52 -60 -1 -19 1 -20 18 -11 15 8 18 7 11 -4 -4 -7 -16 -19
-26 -26 -19 -14 -25 -52 -8 -52 6 0 8 -12 6 -27 -6 -31 9 -53 36 -53 15 0 18
5 13 21 -5 15 -1 25 14 36 12 8 19 19 15 24 -3 5 2 21 11 36 12 18 14 28 6 36
-20 20 -11 26 19 11 30 -15 56 -11 45 7 -4 5 0 9 9 9 8 0 21 3 30 6 10 4 16 1
16 -8 0 -7 9 -14 20 -15 11 -1 20 2 20 8 0 15 38 10 48 -7 5 -9 12 -15 15 -15
25 3 37 -1 37 -12 0 -9 11 -12 35 -9 19 2 42 -1 50 -8 8 -6 20 -8 26 -4 7 4 9
3 6 -3 -4 -6 0 -14 8 -17 11 -4 14 -13 9 -31 -5 -20 -2 -25 12 -25 14 0 16 -3
6 -9 -10 -6 -10 -10 3 -21 12 -10 15 -10 15 0 0 25 77 4 123 -34 24 -20 49
-36 54 -36 6 0 16 -7 23 -15 7 -9 20 -13 28 -10 11 4 13 0 8 -19 -5 -19 -1
-28 13 -35 10 -6 21 -8 24 -5 9 9 42 12 47 3 3 -4 12 -4 20 1 12 7 12 12 2 22
-22 22 -13 29 36 26 28 -1 59 -10 77 -23 38 -26 115 -104 115 -116 0 -23 19
-5 44 41 33 61 42 67 66 45 21 -19 57 -23 105 -12 l30 7 -30 -14 c-16 -8 -82
-37 -145 -63 -76 -32 -116 -54 -118 -66 -3 -16 120 -301 300 -697 44 -96 105
-231 135 -300 29 -69 60 -130 68 -136 8 -6 12 -14 9 -17 -3 -3 27 -78 67 -167
76 -169 106 -210 157 -210 21 0 24 -2 12 -10 -12 -7 -8 -10 15 -10 27 -1 28
-2 13 -14 -10 -7 -18 -17 -18 -22 1 -13 362 -154 393 -154 14 0 37 -5 49 -11
20 -9 37 -4 100 24 42 20 87 38 100 42 13 4 80 32 149 61 l126 54 314 39 c457
58 518 64 533 52 7 -6 15 -8 18 -5 8 7 126 -33 168 -58 45 -27 154 -58 178
-51 11 2 23 0 26 -6 4 -6 26 -11 49 -12 63 -1 34 -7 -88 -18 -60 -6 -222 -21
-360 -35 -137 -14 -457 -46 -710 -71 -543 -53 -887 -88 -1155 -115 -107 -11
-289 -29 -404 -40 -251 -25 -295 -40 -333 -113 -22 -43 -18 -125 32 -786 96
-1250 116 -1497 125 -1532 11 -41 79 -109 108 -109 10 0 22 -4 28 -9 5 -4 59
-29 121 -55 108 -44 116 -46 212 -46 77 0 103 4 115 16 9 8 16 19 16 23 0 12
83 30 175 36 50 4 94 6 99 5 5 -1 12 3 16 10 4 7 40 11 96 11 49 1 94 4 99 9
16 12 58 23 52 13 -3 -5 10 -10 29 -10 28 -1 34 2 30 14 -4 10 -2 13 8 10 8
-3 16 -2 18 2 4 10 124 -3 161 -18 17 -7 25 -15 21 -23 -5 -8 13 -10 71 -5 43
4 91 7 107 7 21 0 28 5 28 20 0 22 10 25 28 10 6 -6 10 -7 7 -4 -3 4 0 13 6
21 13 15 105 18 114 4 3 -6 13 -10 23 -10 9 0 42 -3 72 -6 54 -6 210 6 620 45
113 11 257 24 320 30 269 23 811 78 904 91 114 16 165 59 173 146 3 28 -8 121
-25 223 -17 96 -58 339 -91 540 -34 201 -73 430 -87 509 -14 79 -23 156 -20
171 3 15 2 31 -1 34 -4 4 -8 14 -9 24 -2 9 -8 37 -14 62 -17 68 -100 564 -94
569 2 3 21 -4 42 -14 49 -24 62 -26 62 -9 0 8 3 13 8 13 20 -3 32 2 32 16 0 8
-8 15 -17 16 -15 0 -15 2 2 9 19 8 19 9 -2 9 -13 1 -23 6 -23 11 0 13 6 13 31
-1 13 -7 25 -7 32 -1 12 10 124 -18 114 -28 -3 -3 5 -10 19 -17 13 -6 22 -7
18 -2 -3 5 0 9 5 9 6 0 11 -4 11 -10 0 -5 7 -10 16 -10 10 0 14 -6 10 -15 -3
-8 -1 -15 3 -15 5 0 11 4 13 9 4 12 48 -5 48 -19 0 -6 -7 -13 -15 -16 -14 -6
-22 -54 -9 -54 10 0 34 28 42 51 7 18 10 19 23 7 8 -8 19 -13 26 -11 6 2 16
-11 22 -30 10 -29 16 -34 33 -29 13 3 19 1 15 -5 -4 -6 3 -22 14 -37 11 -14
17 -31 13 -37 -4 -8 -3 -9 4 -5 7 4 12 1 12 -8 0 -9 4 -16 9 -16 5 0 11 -12
13 -27 2 -17 8 -27 16 -25 8 1 11 -2 7 -8 -3 -5 0 -10 7 -10 10 0 10 -2 -1 -9
-11 -7 -9 -11 8 -20 15 -9 19 -16 13 -29 -12 -24 -7 -85 6 -90 7 -2 12 4 12
13 0 12 4 13 18 6 9 -5 22 -11 27 -13 6 -1 9 -8 9 -15 -1 -7 1 -12 5 -11 18 2
30 -4 35 -18 5 -14 0 -15 -31 -10 -21 3 -32 3 -25 0 6 -3 12 -12 12 -20 0 -7
15 -18 33 -23 17 -5 25 -10 16 -10 -37 -2 -6 -60 32 -61 9 0 20 -7 23 -16 3
-8 10 -13 15 -10 5 3 11 -1 15 -9 7 -20 -14 -31 -26 -14 -7 11 -11 11 -15 2
-9 -25 -45 -13 -96 32 -33 29 -61 45 -78 45 -17 0 -28 6 -31 18 -3 10 -23 24
-49 32 -24 7 -50 18 -57 23 -7 6 -15 7 -18 4 -8 -8 23 -87 44 -110 8 -10 17
-34 18 -53 2 -21 17 -55 39 -85 19 -27 35 -55 35 -62 0 -8 9 -24 20 -37 17
-20 19 -32 14 -74 -8 -60 -9 -62 -28 -47 -9 8 -27 10 -45 6 -38 -8 -31 -30 15
-50 21 -8 34 -21 34 -32 1 -24 24 -53 43 -53 8 0 24 -11 35 -25 20 -25 56 -33
67 -15 3 6 0 10 -8 10 -19 0 -42 31 -42 55 0 15 8 21 34 23 30 3 33 1 28 -18
-4 -16 -2 -20 10 -16 8 3 19 6 24 6 6 0 7 5 4 10 -9 14 43 2 72 -17 14 -9 23
-10 27 -4 4 6 20 3 41 -9 20 -11 37 -20 40 -20 13 0 8 -13 -13 -35 l-23 -24
34 -15 c19 -7 38 -19 41 -25 4 -6 21 -18 37 -26 56 -30 59 -17 59 254 0 200
-3 244 -15 258 -8 10 -15 22 -15 26 1 4 -6 15 -15 24 -18 17 -16 34 5 41 8 3
10 0 6 -7 -4 -7 -2 -18 4 -26 6 -8 9 -18 6 -23 -3 -5 1 -9 8 -9 20 0 21 135 1
173 -8 16 -15 25 -16 19 0 -5 -4 -2 -8 8 -6 17 -8 17 -32 -2 -19 -15 -26 -16
-26 -6 0 8 4 12 9 9 4 -3 9 -2 9 3 6 36 5 54 -4 60 -6 3 -7 1 -3 -5 4 -7 2
-12 -3 -12 -6 0 -11 5 -11 11 0 6 -7 8 -16 5 -8 -3 -12 -2 -9 4 3 6 3 10 -2
10 -13 0 -35 -17 -34 -26 0 -13 -50 -7 -63 7 -8 9 -5 10 11 6 24 -5 48 14 35
29 -4 4 1 2 11 -5 14 -12 17 -11 17 3 0 9 -4 16 -9 16 -5 0 -12 7 -15 16 -6
15 -4 15 11 3 10 -8 22 -20 26 -26 4 -7 13 -13 19 -13 7 0 7 5 -1 14 -17 21 4
30 23 10 11 -10 25 -14 41 -10 14 4 25 2 25 -4 0 -5 7 -10 15 -10 13 0 15 249
15 2185 l0 2185 -3270 0 -3270 0 0 -675z m2410 -977 c0 -5 5 -6 11 -2 10 6
123 15 117 9 -2 -2 -47 -21 -101 -43 -66 -27 -94 -35 -84 -24 8 9 13 22 10 28
-2 6 6 15 19 18 14 5 18 9 11 13 -18 7 -16 24 2 17 8 -4 15 -10 15 -16z m745
-37 c3 -5 1 -12 -5 -16 -5 -3 -10 1 -10 9 0 18 6 21 15 7z m40 -101 c8 -56
-10 -34 -20 25 -5 28 -4 37 3 30 6 -5 14 -30 17 -55z m-970 10 c-3 -5 -14 -10
-23 -9 -14 0 -13 2 3 9 27 11 27 11 20 0z m-45 -14 c0 -2 -7 -7 -16 -10 -8 -3
-12 -2 -9 4 6 10 25 14 25 6z m110 -680 c0 -3 -4 -8 -10 -11 -5 -3 -10 -1 -10
4 0 6 5 11 10 11 6 0 10 -2 10 -4z m35 -371 c30 -271 31 -285 24 -285 -4 0
-10 24 -13 53 -3 28 -13 114 -21 189 -14 127 -19 227 -10 203 2 -5 11 -77 20
-160z m-5 -265 c0 -5 -5 -10 -11 -10 -5 0 -7 5 -4 10 3 6 8 10 11 10 2 0 4 -4
4 -10z m294 -242 c-4 -6 -10 -5 -15 3 -14 22 -10 33 6 19 8 -7 12 -17 9 -22z
m2204 -48 c12 -11 25 -20 31 -20 5 0 12 -8 15 -17 8 -20 -17 -48 -34 -38 -6 4
-37 8 -68 10 -69 3 -108 13 -146 36 l-29 18 34 5 c19 3 57 10 84 15 77 14 90
13 113 -9z m-2158 -10 c8 -5 12 -11 10 -14 -3 -2 -14 2 -24 10 -22 15 -10 19
14 4z m2130 -354 c0 -30 -13 -46 -36 -46 -37 0 -33 40 4 41 24 0 25 1 7 9 -19
8 -19 9 3 9 13 1 22 -5 22 -13z m-186 -15 c8 -12 -41 -54 -53 -46 -7 4 -5 14
6 30 18 25 38 32 47 16z m-194 -31 c0 -16 -26 -40 -44 -40 -4 0 -2 48 3 58 0
1 10 2 21 2 13 0 20 -7 20 -20z m610 -16 c0 -4 7 -52 15 -108 26 -176 33 -224
150 -1086 63 -464 115 -859 115 -877 0 -25 -6 -36 -22 -43 -18 -8 -660 -79
-1453 -160 -55 -6 -185 -19 -290 -30 -607 -63 -1489 -150 -1518 -150 -19 0
-40 6 -46 14 -6 7 -18 94 -26 192 -8 99 -17 198 -20 220 l-4 42 54 7 c52 6 55
8 55 34 0 15 -11 162 -25 327 -14 164 -36 441 -50 614 -13 173 -27 341 -31
374 l-6 58 -54 -7 c-52 -6 -54 -5 -54 17 0 13 -5 74 -11 137 -6 62 -9 115 -7
116 2 2 118 15 258 29 373 37 1403 139 2000 197 502 48 609 59 740 73 141 15
230 19 230 10z m-3100 -230 c0 -8 -5 -12 -10 -9 -6 4 -8 11 -5 16 9 14 15 11
15 -7z m37 0 c-3 -3 -12 -4 -19 -1 -8 3 -5 6 6 6 11 1 17 -2 13 -5z m-70 -17
c0 -15 -32 -16 -44 -2 -5 4 -3 6 2 2 6 -3 17 -2 25 4 8 5 15 9 16 9 0 0 1 -6
1 -13z m4200 -243 c-3 -3 -12 -4 -19 -1 -8 3 -5 6 6 6 11 1 17 -2 13 -5z m210
-124 c-1 -11 -5 -20 -9 -20 -4 0 -8 9 -8 20 0 11 4 20 9 20 6 0 9 -9 8 -20z
m163 10 c0 -5 -5 -10 -11 -10 -5 0 -7 5 -4 10 3 6 8 10 11 10 2 0 4 -4 4 -10z
m-50 -15 c16 10 12 -25 -5 -41 -18 -19 -31 -12 -37 21 -6 30 1 39 18 24 7 -6
18 -8 24 -4z m-90 -31 c0 -8 -5 -12 -10 -9 -6 4 -8 11 -5 16 9 14 15 11 15 -7z
m-4457 -24 c-3 -11 -9 -20 -14 -20 -5 0 -9 9 -9 20 0 11 6 20 14 20 9 0 12 -7
9 -20z m4567 -15 c0 -8 6 -15 14 -15 20 0 30 -38 16 -55 -7 -8 -9 -24 -5 -37
7 -20 6 -21 -9 -6 -20 21 -20 28 2 44 16 13 16 13 -2 14 -16 0 -17 2 -5 17 9
10 9 14 2 10 -7 -5 -16 1 -22 12 -14 25 -14 31 -1 31 6 0 10 -7 10 -15z m81
-58 c-10 -9 -11 -8 -5 6 3 10 9 15 12 12 3 -3 0 -11 -7 -18z m-203 -179 c17
-17 -4 -48 -33 -48 -14 0 -25 -5 -25 -11 0 -5 4 -8 8 -5 13 8 35 -11 39 -33 4
-26 -7 -27 -35 -1 -12 11 -28 20 -35 20 -8 0 -20 6 -26 14 -9 10 -8 16 4 26 9
7 14 19 11 27 -3 7 1 13 8 13 8 0 16 -7 20 -15 3 -9 0 -15 -8 -15 -7 0 -19 -7
-26 -15 -10 -12 -10 -15 3 -15 9 0 28 16 43 35 29 38 34 41 52 23z m68 -143
c1 -8 -4 -11 -11 -8 -8 2 -11 11 -8 19 6 16 16 11 19 -11z m-56 11 c0 -3 -4
-8 -10 -11 -5 -3 -10 -1 -10 4 0 6 5 11 10 11 6 0 10 -2 10 -4z m-4362 -253
c-2 -12 -14 -19 -36 -21 -27 -3 -32 0 -32 17 0 17 6 21 36 21 28 0 35 -3 32
-17z"/>
<path d="M3269 5323 c-6 -16 -13 -51 -16 -80 -5 -46 -8 -52 -34 -57 -18 -3
-36 -17 -47 -35 -17 -28 -20 -29 -34 -15 -10 10 -24 14 -36 10 -24 -8 -62 -64
-63 -92 0 -14 -4 -12 -13 9 -7 16 -19 33 -26 37 -18 11 -54 -24 -74 -71 l-15
-34 -1 36 c0 28 -5 38 -25 47 -21 10 -29 8 -55 -15 -38 -31 -67 -86 -81 -153
-9 -43 -8 -55 5 -75 22 -34 50 -31 80 8 l26 32 0 -41 c0 -31 -11 -60 -40 -110
-46 -79 -60 -121 -60 -182 0 -56 14 -82 45 -82 18 0 29 10 44 38 31 61 43 138
49 317 4 124 8 161 14 137 11 -40 49 -62 73 -42 9 8 23 26 31 42 14 28 14 28
34 8 25 -25 41 -25 67 -1 14 13 24 16 31 9 21 -21 57 -3 88 43 l30 46 25 -19
c17 -15 33 -18 58 -14 69 11 121 91 120 186 l0 55 -18 -52 c-37 -108 -100
-168 -137 -131 -19 19 -20 64 -4 159 7 42 10 84 7 93 -10 25 -36 19 -48 -11z
m-29 -185 c0 -7 -13 -40 -29 -73 -26 -54 -30 -57 -30 -30 -1 35 33 115 49 115
5 0 10 -6 10 -12z m-136 -114 l-18 -39 -4 31 c-2 18 5 49 14 70 l18 39 4 -31
c2 -18 -5 -49 -14 -70z m-124 -37 c-14 -47 -34 -39 -25 10 3 19 12 47 18 61
l12 27 3 -30 c2 -16 -1 -47 -8 -68z m-100 48 c0 -33 -36 -127 -61 -159 -30
-39 -43 -33 -35 16 16 99 96 219 96 143z m-30 -372 c-18 -146 -55 -210 -55
-95 1 41 9 75 29 120 16 34 30 61 32 59 2 -2 -1 -40 -6 -84z"/>
<path d="M4105 5341 c82 -14 108 -42 107 -114 -1 -40 -11 -72 -47 -142 -24
-49 -54 -101 -65 -115 l-21 -25 5 40 c3 22 8 66 12 97 l6 56 -48 0 c-31 0 -56
-6 -67 -15 -21 -20 -47 -104 -47 -155 0 -21 -4 -38 -9 -38 -12 0 -23 66 -16
99 4 19 1 32 -10 41 -22 18 -29 8 -59 -93 -15 -48 -31 -85 -36 -82 -6 4 -10
39 -10 80 0 60 -3 74 -17 79 -25 10 -38 -13 -57 -104 -19 -88 -36 -105 -36
-35 0 37 -3 45 -19 45 -24 0 -31 -19 -31 -81 0 -27 -4 -49 -10 -49 -5 0 -10
14 -10 31 0 65 -45 94 -68 43 -7 -14 -17 -22 -22 -19 -6 4 -10 -27 -10 -85 0
-74 3 -92 16 -97 23 -8 34 14 35 72 l1 50 14 -32 c18 -43 47 -58 68 -37 9 8
16 20 16 25 0 5 9 9 19 9 22 0 61 44 61 69 0 9 8 2 20 -16 11 -18 26 -33 34
-33 18 0 54 45 62 77 6 21 8 22 23 10 32 -28 41 -28 63 -4 13 13 35 27 51 31
25 6 27 4 27 -25 0 -19 -14 -52 -36 -85 -46 -69 -83 -159 -84 -201 -1 -101 73
-133 116 -51 26 50 34 85 44 195 l10 102 61 90 c71 107 105 179 114 242 14 95
-44 160 -140 158 l-50 -2 40 -6z m-75 -304 c-24 -65 -40 -81 -40 -40 1 40 38
119 51 106 7 -7 3 -28 -11 -66z m-14 -350 c-16 -80 -30 -117 -46 -117 -29 0 3
141 42 187 18 22 19 9 4 -70z"/>
<path d="M3645 5111 c-3 -6 -1 -20 5 -32 9 -15 9 -24 1 -32 -8 -8 -11 -3 -11
18 0 21 -3 26 -11 18 -6 -6 -9 -26 -7 -44 2 -28 7 -35 30 -37 31 -4 51 24 46
65 -3 29 -42 61 -53 44z"/>
<path d="M3425 4843 c-14 -16 -25 -40 -26 -58 0 -16 -3 -23 -6 -15 -9 25 -46
60 -63 60 -42 0 -89 -97 -74 -154 7 -29 -11 -66 -31 -66 -16 0 -20 31 -16 106
3 58 -19 74 -52 38 -16 -17 -27 -22 -31 -15 -13 21 -45 11 -63 -19 -9 -16 -22
-30 -29 -30 -19 0 -42 -33 -57 -85 -19 -62 -28 -137 -16 -129 5 3 9 14 9 24 0
11 10 45 23 77 l22 58 5 -80 c4 -72 7 -80 25 -80 18 0 21 9 28 90 4 50 13 95
19 100 7 7 9 -8 4 -51 -5 -48 -3 -64 8 -73 23 -19 33 -7 41 51 l7 53 12 -35
c17 -46 54 -53 85 -14 17 21 24 24 35 15 8 -7 25 -11 38 -9 27 4 68 61 69 97
1 22 3 20 11 -11 7 -27 15 -38 29 -38 17 0 19 8 19 70 0 70 19 130 41 130 6 0
7 5 4 10 -11 18 -44 10 -70 -17z m-87 -160 c-19 -39 -33 -34 -36 12 -2 28 4
50 20 75 l23 35 3 -47 c2 -27 -3 -60 -10 -75z"/>
<path d="M0 8265 c0 -82 2 -88 32 -126 40 -50 52 -50 43 2 -6 36 -5 41 14 46
26 7 23 26 -5 32 -24 4 -44 32 -38 52 2 9 -2 22 -11 29 -8 7 -15 18 -15 26 0
7 -4 16 -10 19 -6 4 -10 -25 -10 -80z"/>
<path d="M1010 8294 c0 -5 9 -15 20 -22 17 -10 20 -10 20 5 0 9 -3 13 -7 10
-3 -4 -12 -2 -20 4 -7 6 -13 7 -13 3z"/>
<path d="M280 8264 c0 -9 5 -14 12 -12 18 6 21 28 4 28 -9 0 -16 -7 -16 -16z"/>
<path d="M842 8269 c-31 -12 -28 -15 18 -17 22 -2 40 1 40 6 0 14 -33 20 -58
11z"/>
<path d="M154 8216 c1 -9 17 -26 35 -37 19 -12 39 -37 51 -64 17 -41 50 -63
50 -34 0 7 12 9 35 5 32 -6 35 -5 35 17 0 14 -12 33 -31 47 -17 14 -42 35 -56
48 -33 30 -123 44 -119 18z"/>
<path d="M556 8175 c4 -8 10 -15 15 -15 4 0 6 7 3 15 -4 8 -10 15 -15 15 -4 0
-6 -7 -3 -15z"/>
<path d="M1153 8140 c-16 -25 -8 -44 23 -59 37 -16 41 -14 40 23 -1 19 -4 32
-7 30 -4 -2 -12 3 -19 11 -16 20 -23 19 -37 -5z"/>
<path d="M660 8000 c0 -5 -7 -10 -15 -10 -21 0 -19 -23 4 -39 19 -14 19 -15
-2 -32 -22 -17 -22 -18 -2 -24 11 -4 28 -11 37 -16 24 -12 28 -11 28 5 0 15
21 26 51 26 14 0 18 4 13 13 -5 8 -2 8 9 -2 10 -8 17 -9 17 -3 0 6 -18 22 -40
35 -22 13 -37 27 -33 31 4 4 1 11 -7 16 -20 13 -60 13 -60 0z"/>
<path d="M2 7916 c3 -34 7 -39 58 -60 30 -13 147 -54 260 -91 357 -118 424
-141 457 -158 18 -10 40 -17 50 -17 10 0 47 -11 83 -24 36 -13 99 -34 140 -47
41 -12 98 -32 125 -44 28 -12 75 -28 105 -35 75 -16 230 -69 255 -86 11 -8 30
-14 42 -14 12 0 37 -9 55 -20 39 -23 55 -26 38 -5 -18 22 -103 69 -122 68 -10
-1 -18 2 -18 7 0 5 -16 12 -35 16 -19 3 -40 14 -45 23 -8 14 -9 14 -10 -4 -1
-18 -2 -18 -11 -3 -6 11 -16 15 -26 11 -11 -4 -14 -3 -9 5 5 8 -3 12 -24 12
-43 0 -61 11 -130 82 -50 52 -65 62 -97 63 -61 3 -63 4 -86 29 -28 31 -120 67
-139 55 -20 -13 -66 -11 -71 4 -4 7 -6 6 -6 -5 -1 -15 -4 -15 -43 0 -24 9 -52
24 -62 34 -10 9 -23 15 -28 12 -4 -3 -8 0 -8 7 0 10 -3 10 -11 2 -14 -14 -61
-1 -108 31 -48 33 -84 46 -110 39 -11 -3 -36 2 -55 11 -19 9 -40 16 -47 16 -7
0 -42 16 -77 36 -36 19 -73 33 -83 31 -16 -4 -139 27 -192 48 -16 7 -18 3 -15
-29z"/>
<path d="M1620 7925 c0 -2 10 -10 23 -16 20 -11 21 -11 8 4 -13 16 -31 23 -31
12z"/>
<path d="M1056 7792 c-14 -14 -5 -51 14 -57 20 -6 50 9 50 25 0 11 -57 39 -64
32z"/>
<path d="M1346 7715 c-3 -8 7 -17 26 -24 39 -14 38 -14 38 3 0 20 -57 39 -64
21z"/>
<path d="M1548 7593 c7 -3 16 -2 19 1 4 3 -2 6 -13 5 -11 0 -14 -3 -6 -6z"/>
<path d="M1630 7526 c0 -2 7 -9 15 -16 9 -7 15 -8 15 -2 0 5 -7 12 -15 16 -8
3 -15 4 -15 2z"/>
<path d="M1492 7434 c10 -10 20 -15 24 -12 3 4 -5 12 -18 18 -22 12 -22 12 -6
-6z"/>
<path d="M1735 7329 c-10 -15 -5 -17 45 -24 l45 -7 -25 21 c-27 23 -55 27 -65
10z"/>
<path d="M5546 5841 c2 -46 32 -113 47 -104 5 3 7 2 4 -4 -3 -5 9 -27 28 -49
31 -35 39 -49 33 -56 -1 -2 16 -22 39 -45 23 -23 47 -58 54 -78 20 -54 109
-138 109 -102 0 8 -3 17 -7 21 -13 13 -12 39 3 68 14 27 13 31 -7 61 -13 18
-38 46 -56 63 -19 17 -35 40 -36 52 -1 12 -5 22 -9 22 -15 0 -8 28 8 34 12 4
15 2 11 -9 -4 -8 -1 -17 5 -21 7 -4 8 -3 4 4 -3 6 3 16 14 22 11 6 20 21 20
33 l0 22 -19 -24 c-19 -24 -19 -24 -30 -3 -6 11 -8 29 -5 39 4 11 3 14 -3 7
-6 -9 -11 -8 -21 2 -10 11 -10 14 0 14 18 0 -7 23 -29 26 -10 1 -29 5 -43 9
-14 4 -33 7 -42 7 -10 -1 -18 4 -18 9 0 6 -6 9 -12 6 -7 -2 -20 -1 -29 4 -13
6 -15 1 -13 -30z"/>
<path d="M5960 5470 c0 -6 7 -10 15 -10 8 0 15 2 15 4 0 2 -7 6 -15 10 -8 3
-15 1 -15 -4z"/>
<path d="M5724 5395 c11 -8 22 -12 25 -9 6 6 -19 24 -34 24 -5 -1 -1 -7 9 -15z"/>
<path d="M5558 5236 c5 -10 7 -28 4 -40 -3 -12 -1 -18 3 -13 5 4 19 -2 31 -14
22 -21 23 -21 17 -1 -2 11 -18 35 -34 53 -17 19 -26 25 -21 15z"/>
<path d="M160 5200 c0 -5 5 -10 10 -10 6 0 10 5 10 10 0 6 -4 10 -10 10 -5 0
-10 -4 -10 -10z"/>
<path d="M5653 5127 c-7 -7 -19 -18 -28 -25 -13 -11 -14 -17 -3 -29 21 -26 58
-35 74 -19 19 20 18 39 -5 64 -21 25 -22 25 -38 9z"/>
<path d="M6275 4770 c-16 -7 -17 -9 -3 -9 9 -1 20 4 23 9 7 11 7 11 -20 0z"/>
<path d="M6190 4740 c0 -6 7 -10 15 -10 8 0 15 2 15 4 0 2 -7 6 -15 10 -8 3
-15 1 -15 -4z"/>
<path d="M6242 4728 c3 -7 13 -15 24 -17 16 -3 17 -1 5 13 -16 19 -34 21 -29
4z"/>
<path d="M6205 4701 c-3 -5 -1 -12 4 -15 5 -3 11 1 15 9 6 16 -9 21 -19 6z"/>
<path d="M6520 4580 c0 -5 5 -10 11 -10 5 0 7 5 4 10 -3 6 -8 10 -11 10 -2 0
-4 -4 -4 -10z"/>
<path d="M6460 4566 c0 -2 7 -7 16 -10 8 -3 12 -2 9 4 -6 10 -25 14 -25 6z"/>
<path d="M6315 3560 c-15 -24 80 -110 105 -95 15 9 1 27 -17 21 -8 -3 -11 -2
-8 4 10 16 -6 62 -21 56 -7 -3 -18 2 -24 10 -14 16 -26 18 -35 4z"/>
<path d="M3072 3400 c-10 -16 -10 -20 0 -20 22 0 41 17 34 29 -10 16 -20 14
-34 -9z"/>
<path d="M0 2850 l0 -545 63 -18 c34 -11 71 -23 82 -28 50 -22 125 -48 125
-44 0 3 31 -11 68 -30 38 -19 78 -36 89 -38 12 -2 27 -7 35 -13 7 -5 24 -15
38 -21 14 -6 68 -31 120 -55 52 -25 115 -52 140 -62 67 -25 125 -57 175 -96
49 -39 69 -73 60 -101 -4 -11 -2 -19 3 -19 6 0 12 6 15 13 2 6 11 -4 20 -23
18 -37 72 -80 101 -80 9 0 15 -4 12 -9 -8 -12 66 -41 103 -41 16 0 38 -10 52
-23 91 -89 208 -153 209 -114 1 7 6 5 14 -6 8 -11 20 -15 31 -11 17 7 17 8 0
85 -7 34 -30 58 -74 78 -25 11 -52 29 -58 40 -12 19 -11 20 20 14 17 -3 48
-14 67 -23 19 -10 40 -18 45 -19 18 -2 80 -24 85 -30 3 -3 22 -15 43 -26 20
-11 37 -23 37 -27 0 -4 18 -11 40 -14 27 -4 41 -13 46 -26 3 -10 17 -23 31
-29 19 -7 24 -15 20 -29 -3 -13 1 -24 13 -30 26 -14 30 -13 30 9 0 37 26 45
73 22 51 -25 71 -27 64 -6 -4 8 -2 17 4 20 5 4 7 11 3 16 -4 7 8 8 33 3 39 -7
133 -77 133 -99 0 -7 7 -18 15 -25 32 -26 6 31 -31 68 -13 13 -29 37 -36 53
-7 16 -16 29 -19 29 -4 0 -10 16 -13 35 -8 39 -43 106 -63 118 -19 12 -16 26
6 24 11 0 19 -5 18 -10 -1 -5 5 -11 14 -12 18 -3 59 -40 58 -52 0 -5 8 -10 18
-11 10 -2 27 -14 39 -25 12 -12 40 -33 62 -47 23 -14 44 -33 47 -42 4 -10 11
-18 16 -18 6 0 7 -4 4 -10 -3 -5 -2 -10 4 -10 5 0 19 -16 31 -35 17 -28 27
-34 44 -30 17 5 18 4 6 -5 -13 -9 -13 -12 3 -24 9 -7 17 -24 17 -38 0 -24 16
-48 32 -48 4 0 8 9 8 21 0 11 -4 18 -9 15 -5 -3 -11 1 -15 9 -3 8 0 15 7 15 9
0 8 3 -1 9 -8 4 -14 12 -14 17 -1 16 -22 59 -33 66 -5 4 -6 8 -2 8 4 0 -4 12
-18 27 -39 43 -30 73 23 73 9 0 24 5 32 10 13 9 13 11 0 20 -13 8 -13 11 -1
22 9 8 11 9 7 1 -10 -19 16 -28 29 -10 7 10 17 17 23 17 7 0 11 10 10 23 0 12
1 29 3 37 2 8 -6 19 -19 25 -19 8 -21 15 -17 47 5 29 2 38 -12 42 -10 3 -43
29 -74 58 -31 29 -70 65 -88 80 -17 15 -31 37 -31 48 0 11 -4 20 -10 20 -5 0
-10 7 -10 15 0 21 -35 36 -67 30 -16 -3 -23 -3 -17 0 15 8 -16 95 -33 95 -7 0
-13 5 -13 10 0 6 -6 10 -13 10 -8 0 -19 11 -25 24 -8 18 -18 24 -40 24 -23 -1
-28 -5 -25 -19 3 -11 9 -19 14 -19 5 0 6 -7 3 -15 -4 -8 -10 -15 -15 -15 -5 0
-9 7 -9 15 0 20 -20 19 -35 -2 -12 -16 -14 -16 -38 0 -33 21 -49 22 -19 1 12
-8 20 -19 17 -24 -3 -5 -1 -11 4 -15 6 -3 8 -12 5 -20 -4 -9 3 -18 18 -24 21
-8 24 -15 20 -40 -5 -33 -35 -44 -46 -16 -3 8 -16 15 -28 15 -25 0 -138 86
-138 105 0 16 -148 150 -165 150 -7 0 -23 11 -34 24 -27 31 -28 5 -1 -29 11
-14 20 -30 20 -36 0 -7 7 -14 15 -18 8 -3 14 -16 13 -30 -1 -13 -6 -22 -11
-19 -4 3 -17 -3 -27 -12 -10 -9 -23 -14 -29 -11 -5 3 -12 0 -14 -6 -4 -10 -6
-10 -6 0 -1 7 -6 10 -12 7 -16 -11 -67 15 -72 36 -5 17 -11 19 -44 13 -34 -6
-37 -5 -25 9 14 16 1 34 -17 23 -5 -3 -12 1 -15 10 -4 10 -2 13 7 8 9 -5 9 -4
0 7 -7 7 -13 24 -13 39 0 18 -3 21 -9 11 -6 -10 -12 -4 -22 23 -7 20 -17 36
-21 36 -13 0 -9 -20 7 -37 8 -8 12 -20 8 -26 -5 -8 -8 -8 -10 0 -3 7 -12 9
-20 6 -13 -5 -15 -2 -10 11 4 10 3 15 -3 11 -6 -3 -10 -1 -10 5 0 6 -4 9 -9 6
-13 -9 -23 26 -11 38 13 13 13 46 0 46 -5 0 -10 -4 -10 -9 0 -5 -7 -12 -15
-15 -13 -5 -12 -1 2 18 10 13 20 22 22 20 2 -2 10 1 18 8 18 14 50 -18 46 -47
l-3 -20 9 20 c12 26 13 48 2 41 -17 -11 -39 30 -41 74 -3 62 -3 61 27 49 15
-6 24 -7 20 -3 -3 4 3 15 15 25 24 21 38 24 38 9 0 -7 7 -7 20 0 11 6 18 15
15 20 -3 5 3 8 13 7 13 -1 17 -7 14 -23 -2 -12 2 -25 9 -29 8 -6 10 -4 4 5 -5
9 -4 11 3 6 9 -5 9 -13 1 -28 -9 -16 -7 -24 9 -41 10 -12 29 -40 42 -62 24
-42 96 -112 106 -102 3 3 6 32 6 64 0 60 -17 106 -42 111 -26 5 -41 33 -28 49
14 18 -4 33 -41 33 -13 0 -35 12 -49 28 -13 15 -21 21 -18 15 4 -7 3 -13 -3
-13 -5 0 -13 9 -16 20 -3 11 -12 20 -20 20 -7 0 -15 7 -19 15 -8 21 -48 35
-63 23 -7 -5 -26 -8 -43 -6 -17 1 -34 -3 -38 -9 -9 -14 -30 -2 -79 45 -13 12
-28 22 -33 22 -6 0 -10 5 -10 10 0 6 -5 10 -10 10 -6 0 -38 20 -73 44 -89 62
-120 76 -171 76 -35 0 -44 -3 -40 -14 8 -22 -15 -30 -35 -12 -22 20 -37 20
-45 1 -3 -9 0 -15 8 -15 11 0 12 -8 6 -35 -7 -30 -6 -34 6 -24 8 6 11 15 8 20
-3 5 -3 9 0 9 10 0 45 -77 39 -84 -4 -3 -17 3 -29 15 -15 14 -31 20 -44 16
-17 -4 -20 -2 -15 14 5 15 3 17 -11 12 -14 -5 -16 -3 -10 13 14 35 18 77 7 69
-6 -3 -11 -13 -11 -21 0 -8 -6 -14 -14 -14 -9 0 -13 9 -12 25 2 13 0 24 -3 23
-19 -2 -31 3 -27 11 3 5 -1 11 -9 15 -8 3 -15 12 -15 21 0 8 -5 15 -11 15 -5
0 -8 4 -4 9 3 5 1 12 -5 16 -14 9 -12 -18 3 -34 10 -11 9 -13 -3 -9 -24 7 -25
49 -1 55 12 3 21 9 21 14 0 12 -3 11 -36 -5 -33 -18 -47 -12 -39 15 5 14 2 17
-8 13 -8 -3 -29 8 -48 25 -29 27 -52 37 -62 29 -8 -8 -59 54 -82 99 -25 50
-45 75 -45 55 0 -5 -18 -8 -40 -7 -30 2 -45 9 -61 29 -11 14 -29 26 -40 26
-10 0 -36 16 -58 35 -21 19 -47 35 -58 35 -10 0 -24 5 -31 12 -9 9 -12 -109
-12 -532z m473 153 c-7 -19 -14 -16 -11 5 2 9 -3 16 -9 15 -14 -3 -17 9 -6 20
9 10 32 -25 26 -40z m21 -30 c-7 -39 -13 -41 -12 -4 1 17 5 31 9 31 4 0 5 -12
3 -27z m26 -59 c0 -8 -5 -12 -10 -9 -6 4 -8 11 -5 16 9 14 15 11 15 -7z m427
-146 c-3 -7 -5 -2 -5 12 0 14 2 19 5 13 2 -7 2 -19 0 -25z m37 -24 c9 -23 8
-24 -13 -24 -25 0 -38 20 -20 31 20 12 26 11 33 -7z m3 -41 c-4 -3 10 -22 31
-41 20 -19 31 -31 25 -28 -8 4 -13 1 -13 -8 0 -9 -4 -16 -10 -16 -14 0 -12 27
3 34 6 3 -1 3 -18 0 -18 -3 -25 -2 -18 3 14 10 0 39 -15 29 -5 -3 -12 1 -15 8
-3 8 -1 17 6 20 18 7 31 7 24 -1z m505 -568 c3 -13 1 -22 -3 -19 -9 5 -13 44
-5 44 2 0 6 -11 8 -25z m265 -69 c10 -22 28 -51 41 -65 12 -14 21 -30 18 -37
-3 -9 1 -11 11 -7 12 5 14 3 8 -7 -5 -8 -3 -11 6 -8 17 6 49 -9 49 -22 0 -6
-3 -9 -7 -9 -17 3 -24 -2 -18 -11 5 -8 11 -7 21 1 10 8 17 7 29 -4 8 -9 15
-20 15 -26 0 -6 6 -11 13 -11 17 0 47 -36 47 -56 0 -9 5 -12 13 -8 6 4 9 4 5
-1 -4 -4 -3 -14 3 -21 8 -9 5 -11 -10 -7 -12 3 -21 9 -21 14 0 21 -30 7 -36
-16 -6 -24 -32 -30 -27 -6 2 6 -2 11 -8 11 -7 0 -9 -10 -7 -25 3 -15 1 -22 -5
-18 -6 4 -8 0 -4 -11 9 -23 0 -37 -19 -29 -10 4 -12 9 -4 18 10 12 -1 19 -48
30 -8 2 -17 7 -20 11 -4 4 0 5 9 1 14 -5 16 -1 10 21 -5 18 -15 28 -32 30 -40
6 -50 21 -30 41 18 18 54 22 68 6 5 -4 3 -5 -4 -2 -6 4 -14 1 -16 -5 -4 -10
-8 -9 -16 2 -9 13 -11 13 -11 -2 0 -24 30 -38 58 -27 12 5 22 11 22 14 0 4 -4
3 -10 0 -5 -3 -10 -2 -10 3 0 6 7 12 15 16 8 3 15 10 15 16 0 6 -4 9 -9 5 -5
-3 -15 11 -21 30 -6 19 -20 41 -31 48 -10 8 -16 17 -13 20 4 4 -1 9 -10 13 -9
3 -16 12 -16 18 0 7 -7 13 -15 13 -18 0 -20 -13 -2 -21 6 -4 2 -4 -11 -2 -12
2 -20 0 -16 -5 3 -5 1 -9 -5 -9 -22 0 -21 22 2 40 27 21 29 46 6 64 -19 15
-21 33 -4 33 7 0 22 -19 32 -41z m410 -22 c-3 -3 -2 -17 3 -30 11 -29 0 -31
-24 -5 -17 18 -17 20 1 30 20 12 29 14 20 5z m-127 -11 c0 -5 -4 -14 -9 -21
-6 -10 -10 -9 -14 7 -3 14 0 21 9 21 8 0 14 -3 14 -7z m-315 -83 c3 -5 2 -10
-4 -10 -5 0 -13 5 -16 10 -3 6 -2 10 4 10 5 0 13 -4 16 -10z m555 -136 c0 -24
-1 -24 -17 -9 -14 14 -14 18 -2 26 19 12 19 12 19 -17z m46 -7 c4 -4 -2 -7
-14 -7 -12 0 -22 4 -22 9 0 10 26 9 36 -2z m-516 -35 c0 -5 -7 -9 -15 -9 -8 0
-12 4 -9 9 3 4 9 8 15 8 5 0 9 -4 9 -8z m675 -2 c3 -5 -1 -10 -9 -10 -9 0 -16
5 -16 10 0 6 4 10 9 10 6 0 13 -4 16 -10z m-285 -68 c0 -24 0 -25 20 -7 11 10
20 15 20 12 0 -17 -3 -22 -11 -19 -5 1 -9 -2 -9 -8 0 -16 -13 -12 -45 16 -23
20 -26 27 -16 34 22 13 41 0 41 -28z"/>
<path d="M1930 1841 c0 -6 1 -12 2 -13 1 -2 -4 -13 -11 -25 -13 -25 -6 -30 12
-10 16 16 20 44 7 52 -5 3 -10 1 -10 -4z"/>
<path d="M1870 1810 c0 -5 5 -10 11 -10 5 0 7 5 4 10 -3 6 -8 10 -11 10 -2 0
-4 -4 -4 -10z"/>
<path d="M630 2989 c0 -5 5 -7 10 -4 6 3 10 8 10 11 0 2 -4 4 -10 4 -5 0 -10
-5 -10 -11z"/>
<path d="M4902 2967 c10 -52 -5 -57 -200 -58 -116 -1 -163 -5 -137 -10 l40 -7
-45 3 c-47 3 -614 8 -663 6 -21 -1 -27 -6 -25 -18 2 -13 -3 -18 -18 -17 -15 0
-21 -6 -20 -20 1 -12 6 -24 11 -28 15 -11 200 -10 229 2 17 6 27 6 31 -1 4 -5
25 -10 48 -10 72 1 288 -9 379 -17 48 -4 222 -7 385 -7 264 0 298 2 301 16 7
39 -148 138 -243 155 -22 3 -49 14 -59 23 -18 15 -19 15 -14 -12z"/>
<path d="M680 2965 c0 -7 7 -12 15 -11 24 4 27 13 5 19 -13 3 -20 0 -20 -8z"/>
<path d="M723 2953 c-21 -8 -15 -39 7 -39 11 0 20 6 20 13 0 7 -5 13 -11 13
-5 0 -7 5 -4 10 7 11 6 11 -12 3z"/>
<path d="M4690 2950 c0 -5 5 -10 11 -10 5 0 7 5 4 10 -3 6 -8 10 -11 10 -2 0
-4 -4 -4 -10z"/>
<path d="M672 2933 c6 -7 14 -10 19 -7 15 9 10 20 -10 20 -15 0 -17 -3 -9 -13z"/>
<path d="M1600 2572 c0 -1 15 -17 33 -35 46 -44 91 -106 83 -114 -3 -4 -24 -6
-46 -6 -22 0 -37 -3 -34 -8 3 -5 9 -7 14 -4 4 2 22 0 39 -6 22 -8 30 -16 27
-26 -4 -10 0 -13 12 -11 9 2 16 10 15 16 -2 7 1 12 6 12 5 0 11 10 14 23 2 12
8 30 12 40 5 11 3 17 -6 17 -9 0 -15 14 -16 41 -4 61 -15 70 -89 67 -35 -2
-64 -4 -64 -6z"/>
<path d="M6190 2475 c0 -8 5 -15 10 -15 6 0 10 7 10 15 0 8 -4 15 -10 15 -5 0
-10 -7 -10 -15z"/>
<path d="M5960 2425 c0 -8 5 -15 10 -15 6 0 10 7 10 15 0 8 -4 15 -10 15 -5 0
-10 -7 -10 -15z"/>
<path d="M1327 2398 c-10 -36 4 -47 36 -28 l28 17 -25 17 c-32 20 -33 20 -39
-6z"/>
<path d="M6310 2400 c0 -5 5 -10 11 -10 5 0 7 5 4 10 -3 6 -8 10 -11 10 -2 0
-4 -4 -4 -10z"/>
<path d="M3629 2379 c-170 -24 -334 -129 -433 -277 -51 -77 -69 -121 -91 -212
-59 -257 81 -558 329 -709 31 -18 97 -50 147 -71 82 -34 88 -38 55 -38 -20 0
-42 -5 -50 -11 -7 -6 -16 -8 -19 -4 -4 3 -7 -1 -7 -11 0 -11 5 -15 13 -10 9 5
9 4 0 -6 -9 -10 -18 -11 -35 -3 -16 7 -28 7 -40 -1 -14 -8 -21 -7 -35 9 -17
18 -17 18 2 5 17 -12 18 -12 8 0 -16 17 -46 23 -36 7 4 -7 0 -6 -10 1 -14 12
-17 10 -25 -20 -10 -36 2 -62 25 -54 10 4 11 1 5 -12 -13 -24 -6 -39 44 -99
24 -28 44 -56 44 -63 0 -6 5 -8 10 -5 14 9 12 -11 -3 -23 -8 -7 -18 -6 -31 3
-10 8 -24 11 -31 9 -7 -3 -16 -1 -20 5 -10 18 -48 14 -41 -4 9 -23 -25 -18
-56 9 -15 12 -29 33 -31 45 -4 28 -86 78 -97 60 -6 -8 -9 -8 -12 1 -2 7 -9 11
-15 9 -20 -7 26 -87 55 -97 15 -5 45 -26 67 -46 22 -20 56 -41 75 -48 19 -6
48 -19 65 -29 16 -11 33 -19 36 -19 14 0 16 40 3 59 -21 29 -2 33 23 5 19 -21
20 -26 7 -39 -9 -8 -12 -15 -7 -15 5 0 14 5 21 12 10 10 11 5 6 -20 -5 -23 -3
-32 7 -33 8 0 26 -3 42 -5 15 -3 27 0 27 6 0 18 39 11 52 -10 7 -11 18 -20 23
-20 10 0 45 -26 99 -74 33 -29 102 -57 149 -60 51 -3 77 -16 134 -69 36 -33
47 -38 65 -30 25 11 67 -2 166 -49 70 -33 178 -94 203 -115 8 -7 36 -19 62
-27 25 -7 59 -23 75 -35 17 -11 41 -21 55 -21 14 0 39 -13 57 -30 27 -25 38
-29 65 -24 23 4 49 -2 96 -24 35 -16 77 -34 92 -40 20 -9 231 -12 778 -12
l749 0 -2 661 -3 661 -50 20 c-215 87 -830 300 -1075 373 -63 19 -250 73 -415
120 -165 47 -371 107 -457 132 -87 26 -160 44 -163 42 -2 -3 8 -41 22 -84 23
-68 27 -98 27 -200 0 -111 -2 -126 -32 -204 -42 -112 -78 -165 -170 -253 -87
-83 -182 -137 -285 -162 -75 -19 -174 -19 -227 -1 l-35 12 60 8 c73 9 98 18
124 44 12 12 45 34 75 51 72 41 184 136 218 185 152 222 169 496 43 711 -40
69 -139 164 -210 201 -103 54 -242 78 -356 62z m121 -1340 c-12 -22 -15 -23
-42 -8 -21 11 -21 12 8 24 36 15 47 10 34 -16z m104 -358 c10 -11 30 -24 46
-31 31 -13 46 -38 31 -53 -6 -6 -16 -1 -27 12 -10 11 -24 21 -31 21 -18 0 -53
37 -53 55 0 20 13 19 34 -4z m279 -125 c17 -13 23 -37 11 -48 -7 -8 -54 36
-54 51 0 15 21 14 43 -3z"/>
<path d="M5983 2377 c5 -15 37 -22 37 -9 0 5 -9 12 -21 15 -13 3 -19 1 -16 -6z"/>
<path d="M1353 2353 c4 -3 1 -13 -5 -22 -7 -9 -8 -13 -4 -9 5 4 15 3 23 -3 10
-9 13 -6 13 15 0 18 -5 26 -17 26 -9 0 -13 -3 -10 -7z"/>
<path d="M1430 2310 c0 -5 7 -10 16 -10 8 0 12 5 9 10 -3 6 -10 10 -16 10 -5
0 -9 -4 -9 -10z"/>
<path d="M2357 2294 c-4 -4 -4 -10 -1 -15 6 -10 34 0 34 12 0 10 -24 12 -33 3z"/>
<path d="M0 2247 c0 -27 5 -39 17 -43 10 -3 27 -9 38 -14 43 -18 54 -18 59 -4
7 18 -50 74 -77 74 -7 0 -18 5 -25 12 -9 9 -12 4 -12 -25z"/>
<path d="M1876 2263 c-12 -12 -6 -33 9 -33 8 0 15 6 15 14 0 17 -14 28 -24 19z"/>
<path d="M1980 2267 c0 -2 11 -13 25 -25 27 -24 35 -13 9 12 -14 14 -34 22
-34 13z"/>
<path d="M6006 2214 c-8 -22 -8 -24 8 -24 15 0 28 24 19 34 -11 10 -21 7 -27
-10z"/>
<path d="M2406 2202 c2 -3 -1 -11 -7 -18 -14 -17 -2 -54 17 -54 12 0 14 7 9
33 -4 17 -10 35 -14 38 -5 4 -6 4 -5 1z"/>
<path d="M140 2180 c-13 -9 -13 -11 0 -20 15 -10 40 -14 40 -6 0 11 -13 36
-19 36 -3 0 -13 -5 -21 -10z"/>
<path d="M187 2165 c5 -16 53 -45 73 -45 5 0 10 5 10 10 0 6 -9 10 -21 10 -11
0 -18 4 -15 9 3 4 -6 13 -20 20 -32 14 -35 14 -27 -4z"/>
<path d="M2360 2160 c0 -5 5 -10 10 -10 6 0 10 5 10 10 0 6 -4 10 -10 10 -5 0
-10 -4 -10 -10z"/>
<path d="M2911 2050 c-35 -48 -57 -108 -45 -120 5 -5 28 -12 51 -16 41 -6 41
-6 52 31 12 45 4 120 -15 136 -10 8 -20 1 -43 -31z"/>
<path d="M0 1267 l0 -753 50 -18 c29 -11 58 -29 68 -44 20 -30 57 -65 130
-126 62 -51 114 -66 142 -41 19 17 68 22 108 12 13 -3 51 -20 85 -37 34 -18
85 -40 114 -51 28 -11 111 -50 185 -88 73 -37 150 -71 172 -75 21 -4 55 -16
75 -27 35 -19 76 -19 1735 -19 l1699 0 -44 24 c-107 57 -122 66 -133 81 -7 9
-19 16 -27 15 -46 -7 -73 2 -102 35 -17 19 -39 35 -49 35 -10 0 -18 5 -18 10
0 6 -12 15 -27 21 -22 8 -30 7 -43 -9 -23 -29 -48 -34 -88 -16 -141 62 -163
75 -179 110 -16 33 -20 35 -58 32 -47 -3 -105 14 -310 89 -82 31 -154 56 -160
57 -5 1 -16 5 -22 9 -7 5 -13 6 -13 3 0 -7 -153 63 -160 73 -3 4 -16 14 -30
21 -14 7 -54 32 -90 55 -77 50 -171 87 -206 81 -21 -4 -73 14 -124 43 -8 5
-26 13 -40 19 -14 5 -58 26 -98 46 -39 21 -72 35 -72 31 0 -7 -129 74 -149 93
-49 47 -98 65 -169 63 -29 -1 -32 -4 -27 -21 4 -14 2 -20 -9 -20 -8 0 -20 -8
-26 -17 -11 -17 -11 -17 -6 0 3 9 0 17 -6 17 -6 0 -1 9 12 20 16 14 19 20 8
20 -8 0 -29 18 -47 40 -22 27 -40 40 -57 40 -13 0 -27 7 -30 15 -4 8 -10 12
-15 10 -4 -3 -25 6 -46 19 -21 14 -54 31 -73 37 -19 7 -48 23 -63 36 -16 12
-38 23 -49 23 -19 0 -73 38 -136 97 -14 13 -29 23 -35 23 -5 0 -29 14 -54 30
-24 17 -47 30 -51 30 -4 0 -16 10 -26 21 -13 16 -20 18 -26 9 -4 -7 -16 -9
-27 -6 -10 3 -28 0 -38 -8 -20 -15 -52 -9 -102 17 -15 8 -68 34 -117 56 -49
23 -108 55 -133 71 -24 17 -52 30 -62 30 -16 0 -76 24 -121 49 -8 4 -31 15
-50 24 -19 9 -60 27 -91 41 -31 14 -64 26 -74 26 -9 0 -117 49 -239 109 -251
123 -328 161 -333 161 -2 0 -3 -339 -3 -753z m2035 -337 c-3 -5 -12 -10 -18
-10 -7 0 -6 4 3 10 19 12 23 12 15 0z"/>
<path d="M797 1900 c3 -11 12 -20 19 -20 12 0 12 4 2 20 -7 11 -16 20 -19 20
-4 0 -5 -9 -2 -20z"/>
<path d="M915 1864 c9 -9 18 -14 21 -11 9 9 -6 27 -22 27 -13 0 -13 -2 1 -16z"/>
<path d="M846 1861 c-7 -11 34 -71 49 -71 7 0 16 -10 20 -22 4 -14 8 -18 11
-11 3 7 -4 26 -16 43 -12 16 -19 33 -16 38 2 4 -7 12 -20 19 -13 6 -26 8 -28
4z"/>
<path d="M2684 1674 c-16 -63 19 -155 48 -126 9 9 9 12 0 12 -16 0 -15 32 1
49 10 11 10 14 0 18 -7 3 -13 20 -13 39 0 41 -26 47 -36 8z"/>
<path d="M1686 1532 c-4 -7 -5 -16 -2 -21 4 -5 2 -11 -3 -13 -5 -1 -7 -15 -4
-30 4 -20 11 -28 27 -28 15 0 17 3 8 8 -7 5 -10 15 -7 23 7 20 -9 76 -19 61z"/>
<path d="M2754 1503 c18 -19 29 -24 36 -17 13 13 -11 36 -41 41 -18 3 -17 0 5
-24z"/>
<path d="M1740 1478 c0 -24 5 -50 10 -58 9 -13 12 -12 25 4 18 24 18 44 2 71
-22 36 -37 28 -37 -17z"/>
<path d="M2821 1471 c-11 -7 -10 -14 5 -37 31 -49 53 -66 116 -85 57 -17 98
-42 98 -61 0 -4 -7 -8 -15 -8 -8 0 -15 -6 -15 -13 0 -19 -38 -49 -44 -34 -3 9
-5 9 -5 0 -1 -8 -14 -13 -31 -13 -24 0 -30 -4 -30 -22 0 -12 -10 -32 -22 -45
-23 -24 -19 -27 32 -23 27 2 41 16 34 34 -2 6 3 19 10 29 19 25 58 13 95 -28
16 -19 32 -31 37 -27 4 4 4 -3 1 -15 -7 -29 12 -42 25 -18 8 14 12 15 19 4 13
-21 11 -29 -7 -22 -13 5 -15 0 -11 -28 8 -69 30 -88 55 -48 8 13 10 25 4 32
-5 7 -7 40 -6 73 3 56 1 65 -26 99 -17 21 -30 46 -30 56 0 10 -8 23 -17 29
-17 11 -17 11 0 6 51 -16 67 -18 67 -6 0 15 -40 49 -59 50 -7 0 -35 16 -61 35
-26 19 -54 35 -61 35 -8 1 -39 14 -69 30 -59 32 -68 34 -89 21z"/>
<path d="M2590 1399 c0 -24 54 -79 77 -79 10 0 13 -6 9 -16 -3 -8 -2 -12 4 -9
12 8 13 35 1 35 -11 0 -36 59 -27 67 3 3 6 1 6 -4 0 -6 7 -10 15 -9 46 7 12
31 -47 35 -33 1 -38 -1 -38 -20z"/>
<path d="M3195 1310 c-4 -6 -11 -8 -16 -5 -5 3 -6 -1 -3 -9 8 -22 21 -20 27 4
6 22 2 26 -8 10z"/>
<path d="M2507 1296 c-4 -10 -1 -13 9 -9 15 6 19 23 5 23 -5 0 -11 -7 -14 -14z"/>
<path d="M2690 1276 c0 -16 18 -31 27 -22 3 3 -2 12 -11 21 -14 14 -16 14 -16
1z"/>
<path d="M2739 1184 c4 -15 17 -31 29 -35 34 -13 22 16 -20 49 -15 12 -16 11
-9 -14z"/>
<path d="M3206 1045 c-19 -15 -19 -15 4 -15 22 0 23 -1 5 -20 -10 -11 -15 -23
-12 -27 4 -3 7 -1 7 5 0 6 7 9 16 5 13 -5 13 -7 2 -14 -10 -6 -2 -19 30 -49
38 -37 46 -41 75 -35 18 4 35 9 40 12 10 6 -25 52 -40 53 -7 0 -13 4 -13 10 0
5 -12 16 -27 24 -16 8 -24 15 -20 16 4 0 -3 11 -17 25 -29 29 -26 28 -50 10z"/>
<path d="M4596 45 c-3 -10 -5 -19 -4 -20 19 -15 56 -25 94 -25 44 0 47 1 33
16 -13 13 -20 13 -43 3 -25 -12 -29 -10 -50 16 -20 25 -23 26 -30 10z"/>
</g>
</svg>
